Coordinates
version=1
nRows=14
nColumns=33
inDegrees=yes

Units are S.I. units (second, meters, Newtons, ...)
Angles are in degrees.

endheader
time	ground_thorax_rot_x	ground_thorax_rot_y	ground_thorax_rot_z	ground_thorax_tx	ground_thorax_ty	ground_thorax_tz	clav_prot_r	clav_elev_r	scapula_abduction_r	scapula_elevation_r	scapula_upward_rot_r	scapula_winging_r	shoulder_elv_r	plane_of_elev_r	axial_rot_r	elbow_flexion_r	pro_sup_r	wrist_flex_r	wrist_dev_r	clav_prot_l	clav_elev_l	scapula_abduction_l	scapula_elevation_l	scapula_upward_rot_l	scapula_winging_l	shoulder_elv_l	plane_of_elev_l	axial_rot_l	elbow_flexion_l	pro_sup_l	wrist_flex_l	wrist_dev_l	
2.8200	38.348868	-0.339561	4.574325	-36.308866	800.670360	5.231321	13.027984	38.843523	44.999951	37.374910	-14.025506	-3683.894134	-2099.175629	29.950412	62.033861	369.865928	14.864748	17.089424	11.732921	5.919007	-45.000000	-44.999934	45.000000	-17.838755	2967.405503	-2812.396457	19.860335	-39.683742	2166.698423	20.668091	14.428099	-18.917484	
2.8300	38.152173	-0.334660	4.922529	-35.194236	799.585247	5.626702	12.989275	38.496598	44.999912	37.069557	-14.231657	-3683.901334	-2099.252897	29.912736	62.714469	369.692747	13.641419	16.950386	11.896302	6.122018	-45.000000	-44.999882	45.000000	-18.126173	2967.379910	-2812.364387	19.840550	-40.474897	2166.504205	19.862541	14.284074	-18.798839	
2.8400	37.968570	-0.327380	5.284682	-34.228231	798.559877	6.002289	12.937960	38.184122	44.999842	36.784285	-14.457968	-3683.911177	-2099.308923	29.869975	63.379359	369.544474	12.453680	16.828779	12.061125	6.351050	-45.000000	-44.999789	45.000000	-18.416689	2967.382703	-2812.340644	19.822226	-41.234516	2166.318526	19.108949	14.119983	-18.692787	
2.8500	37.817625	-0.421123	5.531676	-33.566700	797.671258	6.341076	12.894629	37.940918	44.999717	36.547612	-14.551379	-3683.913351	-2099.369286	29.794739	63.949169	369.402229	11.358032	16.720415	12.169538	6.436198	-45.000000	-44.999621	45.000000	-18.535372	2967.364465	-2812.303116	19.775211	-41.795053	2166.160723	18.508123	13.986122	-18.597497	
2.8600	37.699550	-0.572337	5.721916	-33.248383	796.918775	6.633425	12.854152	37.762020	44.999493	36.361961	-14.590156	-3683.912948	-2099.415576	29.697867	64.434378	369.276089	10.345388	16.631652	12.246583	6.449734	-45.000000	-44.999322	45.000000	-18.561210	2967.359018	-2812.265652	19.715233	-42.199553	2166.023158	18.033455	13.856234	-18.519198	
2.8700	37.621009	-0.775574	5.853158	-33.330878	796.311453	6.867440	12.818718	37.664563	44.999092	36.240806	-14.597052	-3683.932641	-2099.465593	29.605143	64.824896	369.153493	9.414096	16.559730	12.287231	6.410848	-45.000000	-44.998785	45.000000	-18.513822	2967.375867	-2812.239674	19.664337	-42.454404	2165.895898	17.677099	13.740854	-18.459791	
2.8800	37.569180	-0.995898	5.972024	-33.836206	795.837863	7.034137	12.792648	37.621474	44.998375	36.164910	-14.622171	-3683.964239	-2099.491509	29.507596	65.133668	369.042277	8.558867	16.507011	12.307400	6.352789	-45.000000	-44.997824	45.000000	-18.444579	2967.435227	-2812.219706	19.618239	-42.575994	2165.773348	17.401999	13.622730	-18.419867	
2.8900	37.542517	-1.213635	6.086979	-34.766117	795.479298	7.127324	12.779221	37.639548	44.997087	36.140881	-14.709434	-3684.039226	-2099.524660	29.443735	65.375768	368.924734	7.775754	16.465457	12.302494	6.315643	-45.000000	-44.996101	45.000000	-18.398784	2967.549488	-2812.216026	19.606407	-42.605245	2165.645050	17.169624	13.518200	-18.398452	
2.9000	37.525614	-1.410062	6.224080	-36.115503	795.220833	7.143675	12.788013	37.669920	44.994786	36.148648	-14.873367	-3684.126778	-2099.530869	29.377919	65.580689	368.819060	7.073444	16.437112	12.279414	6.294771	-45.000000	-44.993021	45.000000	-18.395184	2967.714020	-2812.206399	19.600901	-42.543934	2165.515262	16.947864	13.420511	-18.391677	
2.9100	37.520128	-1.574788	6.384399	-37.873101	795.052581	7.082863	12.824639	37.729522	44.990651	36.201707	-15.143689	-3684.245597	-2099.536781	29.335925	65.775277	368.723214	6.469108	16.418579	12.226735	6.306771	-45.000000	-44.987484	45.000000	-18.457962	2967.928306	-2812.197898	19.613205	-42.416757	2165.384543	16.714910	13.347314	-18.396079	
2.9200	37.516662	-1.690212	6.590579	-40.022845	794.970309	6.947684	12.900723	37.781114	44.983279	36.288520	-15.532656	-3684.364293	-2099.511794	29.281230	65.991057	368.658951	5.989724	16.413309	12.144737	6.352439	-45.000000	-44.977620	45.000000	-18.616696	2968.181779	-2812.173230	19.619395	-42.236471	2165.265566	16.451769	13.284481	-18.408615	
2.9300	37.529344	-1.730152	6.867594	-42.545139	794.975156	6.743317	13.047644	37.877009	44.969974	36.455055	-16.125616	-3684.488813	-2099.491984	29.251948	66.228968	368.620443	5.655038	16.417121	12.018139	6.467186	-45.000000	-44.959799	45.000000	-18.949386	2968.464193	-2812.145698	19.632470	-42.033712	2165.165731	16.138041	13.244316	-18.423970	
2.9400	37.556671	-1.694152	7.221022	-45.418484	795.072724	6.476458	13.265983	37.984220	44.946423	36.697424	-16.910586	-3684.590066	-2099.455560	29.224746	66.502279	368.620414	5.493505	16.432484	11.854207	6.642844	-45.000000	-44.928300	45.000000	-19.463902	2968.763678	-2812.110459	19.640195	-41.830100	2165.087374	15.762465	13.214855	-18.438659	
2.9500	37.600714	-1.578979	7.658204	-48.620659	795.271413	6.153875	13.550370	38.129456	44.903447	37.027637	-17.910219	-3684.666910	-2099.416541	29.227190	66.789722	368.653289	5.541963	16.458450	11.656100	6.883971	-45.000000	-44.870693	45.000000	-20.176708	2969.080926	-2812.076962	19.651776	-41.656306	2165.028378	15.328060	13.197622	-18.451484	
